#!OML:ASF H:\Terrain\Patient Classification 1\Walking\steve\steve.ASF
:FULLY-SPECIFIED
:DEGREES
106
root 6.73837 15.4963 -28.6152 4.34376 -4.26039 4.12429
lowerback 0.0675485 0.567842 -2.72327
upperback -2.01118 0.725445 0.101357
thorax -2.13672 0.412123 1.6157
lowerneck -8.72502 0.848032 -3.68007
upperneck 17.2609 1.27253 2.62793
head 6.64743 0.59494 1.55843
rclavicle 6.20581e-015 4.77083e-015
rhumerus -62.2374 -17.9556 -65.166
rradius 24.2702
rwrist 6.55374
rhand -15.9621 -34.8898
rfingers 7.12502
rthumb 10.2367 -64.6207
lclavicle 6.20581e-015 4.77083e-015
lhumerus -11.5303 1.32605 86.3399
lradius 35.1789
lwrist 21.9672
lhand -26.0146 -12.085
lfingers 7.12502
lthumb 0.531616 17.8941
rfemur -41.549 5.34616 16.7793
rtibia 31.7065
rfoot -15.9805 6.92154
rtoes -10.7818
lfemur 6.76688 0.346272 -28.62
ltibia 9.55124
lfoot -17.031 -2.95947
ltoes -0.570885
107
root 6.73187 15.491 -28.4691 4.25042 -3.91378 4.02035
lowerback 0.340382 0.411623 -2.65075
upperback -2.02867 0.512363 0.247973
thorax -2.2985 0.308159 1.72796
lowerneck -8.65117 0.888181 -3.32744
upperneck 17.1926 1.33632 2.25143
head 6.61665 0.617242 1.38282
rclavicle 1.98101e-014 1.66979e-014
rhumerus -62.5181 -17.5367 -65.3321
rradius 24.3541
rwrist 6.0876
rhand -16.039 -36.1624
rfingers 7.12502
rthumb 10.1625 -65.8969
lclavicle 1.98101e-014 1.66979e-014
lhumerus -11.1174 1.01855 86.3185
lradius 35.9365
lwrist 22.6716
lhand -26.0522 -12.2468
lfingers 7.12502
lthumb 0.495357 17.7324
rfemur -41.6436 5.42718 16.6957
rtibia 30.5696
rfoot -15.7786 6.88244
rtoes -7.48695
lfemur 8.66324 0.0675196 -28.4583
ltibia 7.20485
lfoot -15.9736 -3.2697
ltoes 2.73164
108
root 6.72303 15.4738 -28.3223 4.25111 -3.69746 4.2239
lowerback 0.495518 0.26694 -2.90309
upperback -2.04711 0.311014 0.294006
thorax -2.39709 0.214467 1.92102
lowerneck -8.55894 0.94144 -3.22325
upperneck 17.0153 1.4203 2.08148
head 6.54385 0.651309 1.31517
rclavicle -1.00448e-014 3.18055e-015
rhumerus -62.8421 -17.7134 -64.7517
rradius 24.2133
rwrist 6.57689
rhand -15.8029 -36.6795
rfingers 7.12502
rthumb 10.3903 -66.4028
lclavicle -1.00448e-014 3.18055e-015
lhumerus -10.6262 0.865593 86.2555
lradius 36.5521
lwrist 23.2705
lhand -25.9542 -11.8269
lfingers 7.12502
lthumb 0.589989 18.152
rfemur -42.0117 5.18203 16.4746
rtibia 29.6744
rfoot -15.3321 7.21804
rtoes -4.22905
lfemur 10.9461 -0.118048 -28.6517
ltibia 3.81884
lfoot -14.4319 -3.00492
ltoes 3.89275
109
root 6.71212 15.4432 -28.1704 4.24459 -3.52768 4.54023
lowerback 0.591656 0.241149 -3.17505
upperback -2.03634 0.267737 0.252536
thorax -2.43956 0.198228 2.03178
lowerneck -8.51635 0.883261 -3.39973
upperneck 16.8318 1.35597 2.14706
head 6.47796 0.615798 1.35806
rclavicle -2.32951e-015 -1.66979e-014
rhumerus -63.2244 -18.6672 -63.2972
rradius 23.5095
rwrist 7.89723
rhand -16.7645 -36.866
rfingers 7.12502
rthumb 9.46254 -66.6335
lclavicle -2.32951e-015 -1.66979e-014
lhumerus -10.0364 0.818442 86.3226
lradius 36.9892
lwrist 23.3731
lhand -25.4244 -12.0363
lfingers 7.12502
lthumb 1.10171 17.9406
rfemur -42.4118 5.12668 16.0967
rtibia 28.9779
rfoot -15.0127 7.29854
rtoes -3.36841
lfemur 13.4926 -0.248099 -29.0655
ltibia -2.22639e-014
lfoot -12.8605 -2.03833
ltoes 0.366898
110
root 6.70309 15.4312 -28.015 4.27625 -3.27077 4.88191
lowerback 0.516901 0.235958 -3.34408
upperback -1.97208 0.259933 0.170972
thorax -2.33159 0.194151 2.0433
lowerneck -8.76351 0.838516 -3.38537
upperneck 16.9208 1.29494 2.18265
head 6.5512 0.590464 1.36519
rclavicle 1.18836e-014 1.03368e-014
rhumerus -63.5171 -20.0097 -61.411
rradius 22.4841
rwrist 9.50442
rhand -16.4379 -38.8539
rfingers 7.12502
rthumb 9.77768 -68.6069
lclavicle 1.18836e-014 1.03368e-014
lhumerus -9.27961 0.973036 86.4881
lradius 37.2129
lwrist 23.0549
lhand -24.1105 -13.3243
lfingers 7.12502
lthumb 2.37066 16.6423
rfemur -42.6477 5.26698 15.5098
rtibia 28.281
rfoot -14.9047 6.87279
rtoes -4.38397
lfemur 14.0403 -0.477572 -29.4562
ltibia -3.49861e-014
lfoot -12.9788 -1.92845
ltoes -1.2663
111
root 6.69607 15.4225 -27.8568 4.386 -2.91565 5.19706
lowerback 0.32016 0.178392 -3.46867
upperback -1.89974 0.188715 0.0983695
thorax -2.14248 0.155998 2.04095
lowerneck -8.84462 0.814102 -3.35276
upperneck 16.7618 1.254 2.21831
head 6.5157 0.577257 1.36697
rclavicle -7.01958e-015 -4.77083e-015
rhumerus -63.8102 -20.831 -60.3161
rradius 22.0467
rwrist 10.4431
rhand -14.6085 -40.3114
rfingers 7.12502
rthumb 11.5423 -69.9736
lclavicle -7.01958e-015 -4.77083e-015
lhumerus -8.60098 0.828391 86.6133
lradius 37.5739
lwrist 23.1054
lhand -23.5537 -13.4101
lfingers 7.12502
lthumb 2.90834 16.5498
rfemur -42.8967 4.80352 15.1959
rtibia 27.6412
rfoot -14.0952 7.2053
rtoes -1.11111
lfemur 14.4941 -0.817789 -29.7901
ltibia 2.8625e-014
lfoot -13.0582 -2.02476
ltoes -1.43061
112
root 6.68935 15.413 -27.6967 4.5088 -2.51451 5.19115
lowerback 0.266401 0.0606011 -3.31208
upperback -1.93627 0.0353474 0.104157
thorax -2.13989 0.0771079 1.96245
lowerneck -8.49243 0.759717 -3.27367
upperneck 16.2597 1.17684 2.10766
head 6.29826 0.5382 1.30486
rclavicle -1.11195e-014 1.59028e-015
rhumerus -64.2631 -21.3154 -59.6384
rradius 21.9373
rwrist 11.1069
rhand -14.1942 -39.6745
rfingers 7.12502
rthumb 11.9419 -69.3139
lclavicle -1.11195e-014 1.59028e-015
lhumerus -8.42102 0.282268 86.5198
lradius 38.253
lwrist 23.666
lhand -23.8764 -12.6955
lfingers 7.12502
lthumb 2.59677 17.2685
rfemur -43.1322 4.66761 15.0866
rtibia 27.2084
rfoot -13.484 7.23182
rtoes 5.17165
lfemur 14.9743 -1.18148 -29.7819
ltibia -6.36111e-015
lfoot -13.2205 -1.6856
ltoes -5.03475
113
root 6.68137 15.4141 -27.5398 4.5442 -2.24023 5.12358
lowerback 0.402541 -0.0885865 -3.1169
upperback -1.97367 -0.166489 0.102082
thorax -2.24314 -0.0251484 1.85554
lowerneck -8.37827 0.755488 -2.93958
upperneck 16.0523 1.17341 1.7737
head 6.21756 0.531223 1.14044
rclavicle 7.28049e-015 -9.54166e-015
rhumerus -64.5097 -21.9748 -58.8071
rradius 21.572
rwrist 11.9124
rhand -15.2147 -37.5901
rfingers 7.12502
rthumb 10.9576 -67.2841
lclavicle 7.28049e-015 -9.54166e-015
lhumerus -8.2757 0.240281 86.2603
lradius 38.809
lwrist 23.88
lhand -23.9688 -13.1505
lfingers 7.12502
lthumb 2.50753 16.8145
rfemur -43.1365 4.77279 14.9427
rtibia 26.8349
rfoot -13.6634 6.94711
rtoes 9.11473
lfemur 15.5789 -1.40055 -29.7197
ltibia -2.8625e-014
lfoot -13.3947 -1.05817
ltoes -10.1665
114
root 6.67266 15.3918 -27.3817 4.52507 -2.04823 5.25496
lowerback 0.501369 -0.17939 -3.13089
upperback -1.92531 -0.290498 0.106201
thorax -2.24203 -0.0873755 1.8708
lowerneck -8.7063 0.785684 -2.88696
upperneck 16.2163 1.23498 1.66146
head 6.32647 0.555015 1.10452
rclavicle 1.24116e-014 -7.95139e-015
rhumerus -64.6269 -22.5241 -58.0284
rradius 21.3873
rwrist 12.3167
rhand -16.1146 -35.4653
rfingers 7.12502
rthumb 10.0896 -65.2034
lclavicle 1.24116e-014 -7.95139e-015
lhumerus -7.92353 0.710442 86.2471
lradius 39.2956
lwrist 23.6051
lhand -23.6219 -13.903
lfingers 7.12502
lthumb 2.84251 16.0578
rfemur -43.1559 3.80193 15.2044
rtibia 26.6572
rfoot -13.3131 7.85994
rtoes 6.7379
lfemur 16.2756 -1.54177 -29.8844
ltibia 9.54166e-015
lfoot -13.2932 -0.877995
ltoes -10.7906
115
root 6.66794 15.3754 -27.2163 4.7005 -1.7935 5.36553
lowerback 0.36073 -0.267471 -3.05873
upperback -1.97167 -0.401319 0.176296
thorax -2.20432 -0.143408 1.9043
lowerneck -9.00541 0.829221 -3.19998
upperneck 16.4305 1.33144 1.7872
head 6.44138 0.591954 1.20815
rclavicle -3.97569e-016 9.54166e-015
rhumerus -64.722 -22.3633 -57.8741
rradius 21.4772
rwrist 11.8384
rhand -16.2956 -35.9176
rfingers 7.12502
rthumb 9.91494 -65.6641
lclavicle -3.97569e-016 9.54166e-015
lhumerus -7.85987 0.940782 86.3788
lradius 39.9618
lwrist 23.5993
lhand -23.32 -14.3496
lfingers 7.12502
lthumb 3.13408 15.6071
rfemur -43.3811 4.13557 14.7076
rtibia 26.7568
rfoot -13.4284 7.52144
rtoes -0.253698
lfemur 16.7511 -1.79192 -29.935
ltibia 1.27222e-014
lfoot -12.8895 -1.71198
ltoes -4.45792
116
root 6.66034 15.3635 -27.0516 4.91181 -1.60171 5.49947
lowerback 0.21461 -0.341719 -3.03298
upperback -1.98146 -0.494096 0.232335
thorax -2.12674 -0.190788 1.94841
lowerneck -9.38388 0.969362 -3.23135
upperneck 16.6146 1.53405 1.82675
head 6.56017 0.690669 1.2473
rclavicle -6.80837e-015 1.98785e-014
rhumerus -64.9239 -22.7614 -57.1185
rradius 21.4558
rwrist 12.2072
rhand -15.6501 -37.5598
rfingers 7.12502
rthumb 10.5377 -67.2756
lclavicle -6.80837e-015 1.98785e-014
lhumerus -7.76656 0.937935 86.4399
lradius 40.5379
lwrist 23.856
lhand -23.3053 -14.4877
lfingers 7.12502
lthumb 3.14828 15.4688
rfemur -43.6224 4.37478 14.2629
rtibia 27.0606
rfoot -13.6258 7.46336
rtoes -3.28903
lfemur 17.1057 -1.99935 -29.9599
ltibia -6.36111e-015
lfoot -12.4085 -2.52494
ltoes 1.85879
117
root 6.64785 15.3539 -26.8894 4.95361 -1.41949 5.64018
lowerback 0.161386 -0.405217 -3.02842
upperback -1.69126 -0.572593 0.214417
thorax -1.794 -0.238835 1.92696
lowerneck -10.0966 0.794626 -3.62742
upperneck 16.3262 1.35741 2.00089
head 6.59345 0.599754 1.35697
rclavicle 1.63997e-015 -5.56597e-015
rhumerus -64.9094 -23.9987 -55.9256
rradius 21.3633
rwrist 13.1971
rhand -14.5106 -38.3211
rfingers 7.12502
rthumb 11.6367 -67.978
lclavicle 1.63997e-015 -5.56597e-015
lhumerus -7.14511 1.0909 86.4119
lradius 40.9802
lwrist 23.8802
lhand -23.2984 -14.0274
lfingers 7.12502
lthumb 3.15494 15.929
rfemur -43.5818 4.77492 13.7694
rtibia 27.3715
rfoot -13.958 7.24969
rtoes -3.22121
lfemur 17.5888 -2.14541 -30.1193
ltibia -1.90833e-014
lfoot -12.1888 -1.91657
ltoes -1.89863
118
root 6.63948 15.3375 -26.72 4.94473 -1.18159 5.66229
lowerback 0.237145 -0.37468 -2.79161
upperback -1.91675 -0.534072 0.253006
thorax -2.07194 -0.216336 1.83491
lowerneck -9.10908 0.658748 -3.91415
upperneck 15.8815 1.18875 1.95401
head 6.28386 0.498705 1.36368
rclavicle -5.04416e-015 8.74653e-015
rhumerus -65.5625 -23.8677 -55.4201
rradius 21.6291
rwrist 12.812
rhand -14.2364 -38.3828
rfingers 7.12502
rthumb 11.9012 -68.0245
lclavicle -5.04416e-015 8.74653e-015
lhumerus -7.77101 0.99163 86.6562
lradius 41.5773
lwrist 23.8316
lhand -23.3643 -13.9218
lfingers 7.12502
lthumb 3.09128 16.0356
rfemur -43.4333 5.31672 13.3419
rtibia 27.796
rfoot -14.1261 6.71997
rtoes -3.545
lfemur 18.2086 -2.31972 -30.189
ltibia 2.22639e-014
lfoot -11.9469 -1.40407
ltoes -5.55745
119
root 6.62858 15.3107 -26.545 4.90553 -1.08775 5.74055
lowerback 0.341741 -0.334032 -2.70554
upperback -2.00634 -0.482802 0.264197
thorax -2.22609 -0.188955 1.79833
lowerneck -8.88026 0.587122 -3.83465
upperneck 15.7442 1.10148 1.76143
head 6.20544 0.446749 1.27965
rclavicle -9.19379e-016 7.15625e-015
rhumerus -65.7843 -23.7617 -55.4226
rradius 21.7981
rwrist 12.3508
rhand -14.852 -38.0697
rfingers 7.12502
rthumb 11.3075 -67.7449
lclavicle -9.19379e-016 7.15625e-015
lhumerus -8.14081 0.944461 86.7693
lradius 42.1006
lwrist 23.857
lhand -23.5207 -14.312
lfingers 7.12502
lthumb 2.94025 15.6475
rfemur -43.275 5.8968 12.9585
rtibia 28.3355
rfoot -13.7499 6.2839
rtoes -2.5124
lfemur 18.9403 -2.36335 -30.2691
ltibia -2.54444e-014
lfoot -11.5647 -1.53683
ltoes -3.37591
